<svg width="1839" height="816" viewBox="0 0 1839 816" fill="none" xmlns="http://www.w3.org/2000/svg">
<path d="M1182.87 756.464C1182.87 759.338 1180.64 761.672 1177.89 761.672C1175.14 761.672 1172.91 759.338 1172.91 756.464C1172.91 753.59 1175.14 751.256 1177.89 751.256C1180.64 751.256 1182.87 753.584 1182.87 756.464Z" stroke="#4D2C5E" stroke-opacity="0.1" stroke-width="2" stroke-miterlimit="10" stroke-linecap="round" stroke-linejoin="round"/>
<path d="M1231.18 801.632C1233.93 801.632 1236.16 799.3 1236.16 796.424C1236.16 793.547 1233.93 791.216 1231.18 791.216C1228.43 791.216 1226.2 793.547 1226.2 796.424C1226.2 799.3 1228.43 801.632 1231.18 801.632Z" stroke="#4D2C5E" stroke-opacity="0.1" stroke-width="2" stroke-miterlimit="10" stroke-linecap="round" stroke-linejoin="round"/>
<path d="M1212.43 785.717C1218.3 785.717 1223.05 780.744 1223.05 774.61C1223.05 768.476 1218.3 763.503 1212.43 763.503C1206.57 763.503 1201.81 768.476 1201.81 774.61C1201.81 780.744 1206.57 785.717 1212.43 785.717Z" stroke="#4D2C5E" stroke-opacity="0.1" stroke-width="2" stroke-miterlimit="10" stroke-linecap="round" stroke-linejoin="round"/>
<path d="M1230.93 774.61L1227.39 781.085L1225.52 788.294L1218.63 790.252L1212.43 793.962L1206.24 790.252L1199.34 788.294L1197.47 781.085L1193.92 774.61L1197.47 768.129L1199.34 760.92L1206.24 758.962L1212.43 755.251L1218.63 758.962L1225.52 760.92L1227.39 768.129L1230.93 774.61Z" stroke="#4D2C5E" stroke-opacity="0.1" stroke-width="2" stroke-miterlimit="10" stroke-linecap="round" stroke-linejoin="round"/>
<path d="M1226.2 796.424C1226.2 793.55 1228.43 791.216 1231.18 791.216C1232.66 791.216 1234 791.901 1234.91 792.98C1238.7 787.911 1240.96 781.539 1240.96 774.604C1240.96 758.119 1228.19 744.757 1212.43 744.757C1196.66 744.757 1183.89 758.119 1183.89 774.604C1183.89 791.088 1196.66 804.451 1212.43 804.451C1217.97 804.451 1223.13 802.796 1227.51 799.94C1226.7 799.012 1226.2 797.782 1226.2 796.424Z" stroke="#4D2C5E" stroke-opacity="0.1" stroke-width="2" stroke-miterlimit="10" stroke-linecap="round" stroke-linejoin="round"/>
<path d="M1212.43 734.22C1199.12 734.22 1187.37 741.271 1180.43 751.996C1181.89 752.905 1182.87 754.566 1182.87 756.47C1182.87 759.344 1180.64 761.678 1177.89 761.678C1177.21 761.678 1176.57 761.532 1175.98 761.278C1174.59 765.455 1173.82 769.935 1173.82 774.61C1173.82 796.915 1191.11 815 1212.44 815C1233.76 815 1251.05 796.915 1251.05 774.61C1251.05 752.305 1233.76 734.22 1212.43 734.22Z" stroke="#4D2C5E" stroke-opacity="0.1" stroke-width="2" stroke-miterlimit="10" stroke-linecap="round" stroke-linejoin="round"/>
<path d="M1327.98 86.1091L1304.02 77.5983C1301.49 76.7013 1300.14 73.8237 1300.99 71.1757C1301.85 68.5277 1304.6 67.1141 1307.13 68.0111L1331.09 76.5219C1333.62 77.4189 1334.97 80.2965 1334.11 82.9373C1333.25 85.5925 1330.51 87.0133 1327.98 86.1091Z" stroke="#4D2C5E" stroke-opacity="0.1" stroke-width="3" stroke-miterlimit="10"/>
<path d="M1324.83 95.8112L1300.87 87.3004C1298.34 86.4034 1296.99 83.5258 1297.84 80.885C1298.7 78.237 1301.45 76.8233 1303.98 77.7203L1327.94 86.224C1330.47 87.121 1331.83 89.9986 1330.97 92.6466C1330.1 95.2946 1327.36 96.7082 1324.83 95.8112Z" stroke="#4D2C5E" stroke-opacity="0.1" stroke-width="3" stroke-miterlimit="10"/>
<path d="M1303.53 41.8399C1303.56 41.926 1303.58 42.005 1303.61 42.0911C1304.14 43.8779 1307.3 55.2018 1305.98 67.7671L1331.68 76.6368C1337.77 65.722 1346.76 58.5961 1348.2 57.491C1348.27 57.4407 1348.34 57.3905 1348.4 57.3403C1349.1 56.8164 1349.78 56.2567 1350.44 55.6611C1354.31 52.1663 1357.36 47.5664 1359.07 42.127C1364.13 26.11 1355.81 8.83712 1340.5 3.54834C1325.18 -1.74043 1308.67 6.95699 1303.61 22.974C1301.89 28.4207 1301.72 34.0108 1302.85 39.2279C1303.04 40.1033 1303.26 40.9788 1303.53 41.8399Z" stroke="#4D2C5E" stroke-opacity="0.1" stroke-width="3" stroke-miterlimit="10"/>
<path d="M1302.18 87.8889C1301.89 93.1992 1305.02 98.2583 1310.08 100.009C1315.08 101.732 1320.4 99.6864 1323.22 95.3592L1302.18 87.8889Z" stroke="#4D2C5E" stroke-opacity="0.1" stroke-width="3" stroke-miterlimit="10"/>
<path d="M1314.03 70.4008L1321.66 46.1958C1322.42 43.8134 1321.18 41.2443 1318.9 40.455C1316.62 39.6656 1314.17 40.9645 1313.41 43.3469C1312.66 45.7294 1313.9 48.2984 1316.18 49.0878L1325.34 52.2524" stroke="#4D2C5E" stroke-opacity="0.1" stroke-width="3" stroke-miterlimit="10"/>
<path d="M1324.1 73.8811L1331.74 49.6762C1332.49 47.2938 1334.95 46.0021 1337.23 46.7842C1339.5 47.5736 1340.74 50.1427 1339.99 52.5251C1339.24 54.9076 1336.78 56.1993 1334.5 55.4171L1325.34 52.2524" stroke="#4D2C5E" stroke-opacity="0.1" stroke-width="3" stroke-miterlimit="10"/>
<path d="M1364.5 50.4656L1372.24 53.1422" stroke="#4D2C5E" stroke-opacity="0.1" stroke-width="3" stroke-miterlimit="10" stroke-linecap="round"/>
<path d="M1368.05 40.2684L1376.11 38.9983" stroke="#4D2C5E" stroke-opacity="0.1" stroke-width="3" stroke-miterlimit="10" stroke-linecap="round"/>
<path d="M1359.08 59.2134L1364.83 65.2556" stroke="#4D2C5E" stroke-opacity="0.1" stroke-width="3" stroke-miterlimit="10" stroke-linecap="round"/>
<path d="M1292.61 25.6507L1284.88 22.9812" stroke="#4D2C5E" stroke-opacity="0.1" stroke-width="3" stroke-miterlimit="10" stroke-linecap="round"/>
<path d="M1295.57 15.2454L1289.82 9.20312" stroke="#4D2C5E" stroke-opacity="0.1" stroke-width="3" stroke-miterlimit="10" stroke-linecap="round"/>
<path d="M1291.99 36.0488L1283.94 37.319" stroke="#4D2C5E" stroke-opacity="0.1" stroke-width="3" stroke-miterlimit="10" stroke-linecap="round"/>
<path d="M1085.52 170.355L1014.38 148.127C1009.2 146.513 1006.27 140.817 1007.81 135.405L1022.02 85.6391C1023.56 80.2272 1029.01 77.1555 1034.18 78.7702L1105.33 100.998C1110.5 102.613 1113.44 108.308 1111.89 113.72L1097.69 163.486C1096.14 168.892 1090.69 171.97 1085.52 170.355Z" stroke="#4D2C5E" stroke-opacity="0.1" stroke-width="4" stroke-miterlimit="10" stroke-linecap="round"/>
<path d="M1009.49 129.52L1099.36 157.601" stroke="#4D2C5E" stroke-opacity="0.1" stroke-width="4" stroke-miterlimit="10" stroke-linecap="round"/>
<path d="M1054.64 151.716C1054.26 153.066 1052.9 153.836 1051.61 153.432C1050.31 153.028 1049.58 151.603 1049.97 150.253C1050.35 148.903 1051.71 148.134 1053 148.537C1054.29 148.941 1055.03 150.367 1054.64 151.716Z" fill="#4D2C5E" fill-opacity="0.5"/>
<path d="M1060.03 162.399L1039.88 156.104L1037.17 165.611L1057.32 171.906L1060.03 162.399Z" stroke="#4D2C5E" stroke-opacity="0.1" stroke-width="4" stroke-miterlimit="10" stroke-linecap="round"/>
<path d="M1029.7 163.821L1064.48 174.688" stroke="#4D2C5E" stroke-opacity="0.1" stroke-width="4" stroke-miterlimit="10" stroke-linecap="round"/>
<path d="M1777.1 91.9261C1799.4 91.9261 1817.48 82.963 1817.48 71.9065C1817.48 60.85 1799.4 51.887 1777.1 51.887C1754.79 51.887 1736.71 60.85 1736.71 71.9065C1736.71 82.963 1754.79 91.9261 1777.1 91.9261Z" stroke="#4D2C5E" stroke-opacity="0.1" stroke-width="3" stroke-miterlimit="10" stroke-linecap="round" stroke-linejoin="round"/>
<path d="M1793.43 82.3418C1805.02 62.4195 1807.1 41.6086 1798.07 35.8592C1789.05 30.1098 1772.33 41.5992 1760.73 61.5214C1749.13 81.4436 1747.05 102.255 1756.08 108.004C1765.11 113.753 1781.83 102.264 1793.43 82.3418Z" stroke="#4D2C5E" stroke-opacity="0.1" stroke-width="3" stroke-miterlimit="10" stroke-linecap="round" stroke-linejoin="round"/>
<path d="M1798.07 107.995C1807.1 102.246 1805.01 81.4347 1793.42 61.5125C1781.82 41.5903 1765.1 30.101 1756.07 35.8503C1747.04 41.5997 1749.12 62.4106 1760.72 82.3329C1772.32 102.255 1789.04 113.744 1798.07 107.995Z" stroke="#4D2C5E" stroke-opacity="0.1" stroke-width="3" stroke-miterlimit="10" stroke-linecap="round" stroke-linejoin="round"/>
<path d="M1777.1 77.2057C1779.89 77.2057 1782.16 74.833 1782.16 71.9062C1782.16 68.9794 1779.89 66.6067 1777.1 66.6067C1774.3 66.6067 1772.03 68.9794 1772.03 71.9062C1772.03 74.833 1774.3 77.2057 1777.1 77.2057Z" stroke="#4D2C5E" stroke-opacity="0.1" stroke-width="3" stroke-miterlimit="10" stroke-linecap="round" stroke-linejoin="round"/>
<path d="M1791.3 703.729L1757.96 711.78L1756.46 704.982C1756.11 703.406 1757.05 701.838 1758.55 701.471L1786.44 694.733C1787.95 694.373 1789.45 695.348 1789.8 696.924L1791.3 703.729Z" stroke="#4D2C5E" stroke-opacity="0.1" stroke-width="3" stroke-miterlimit="10" stroke-linecap="round"/>
<path d="M1780.34 667.173C1795.04 654.779 1797.35 632.27 1785.5 616.899C1773.65 601.527 1752.13 599.113 1737.43 611.507C1722.73 623.901 1720.42 646.41 1732.27 661.782C1744.12 677.153 1765.64 679.567 1780.34 667.173Z" stroke="#4D2C5E" stroke-opacity="0.1" stroke-width="3" stroke-miterlimit="10"/>
<path d="M1774.79 670.971L1742.91 607.72L1738.93 600.045C1718.15 611.502 1710.19 638.408 1721.14 660.144C1732.1 681.88 1757.82 690.208 1778.6 678.751L1774.71 671.023" stroke="#4D2C5E" stroke-opacity="0.1" stroke-width="3" stroke-miterlimit="10" stroke-linecap="round" stroke-linejoin="round"/>
<path d="M1749.94 621.58C1760.38 615.824 1767.27 608.047 1765.34 604.209C1763.4 600.372 1753.37 601.926 1742.93 607.682C1732.5 613.437 1725.61 621.214 1727.54 625.052C1729.47 628.89 1739.5 627.335 1749.94 621.58Z" stroke="#4D2C5E" stroke-opacity="0.1" stroke-width="3" stroke-miterlimit="10"/>
<path d="M1752.39 674.445C1759.76 675.93 1767.64 674.917 1774.79 670.971C1781.95 667.024 1787.2 660.797 1790.2 653.601C1782.83 652.116 1774.94 653.129 1767.79 657.075C1760.63 661.022 1755.38 667.249 1752.39 674.445Z" stroke="#4D2C5E" stroke-opacity="0.1" stroke-width="3" stroke-miterlimit="10"/>
<path d="M1774.82 670.932C1783.17 666.328 1782.8 648.437 1773.99 630.97C1765.19 613.504 1751.28 603.076 1742.94 607.68C1734.59 612.283 1734.96 630.175 1743.76 647.641C1752.57 665.108 1766.47 675.536 1774.82 670.932Z" stroke="#4D2C5E" stroke-opacity="0.1" stroke-width="3" stroke-miterlimit="10"/>
<path d="M1728.62 656.017L1789.09 622.674" stroke="#4D2C5E" stroke-opacity="0.1" stroke-width="3" stroke-miterlimit="10"/>
<path d="M1768.78 682.646L1772.31 698.042" stroke="#4D2C5E" stroke-opacity="0.1" stroke-width="3" stroke-miterlimit="10"/>
<path d="M1753.96 713.213L1796.46 702.551" stroke="#4D2C5E" stroke-opacity="0.1" stroke-width="3" stroke-miterlimit="10" stroke-linecap="round"/>
<path d="M1814.11 480.495L1831.9 461.888L1782.61 410.332L1764.82 428.938L1814.11 480.495Z" stroke="#4D2C5E" stroke-opacity="0.1" stroke-width="3" stroke-miterlimit="10" stroke-linecap="round" stroke-linejoin="round"/>
<path d="M1836.71 485.528L1831.9 461.885L1814.11 480.492L1836.71 485.528Z" stroke="#4D2C5E" stroke-opacity="0.1" stroke-width="3" stroke-miterlimit="10" stroke-linecap="round" stroke-linejoin="round"/>
<path d="M1834.47 474.497L1826.16 483.178" stroke="#4D2C5E" stroke-opacity="0.1" stroke-width="3" stroke-miterlimit="10" stroke-linecap="round" stroke-linejoin="round"/>
<path d="M1759.58 414.753L1769.04 404.86C1771.34 402.452 1775.07 402.452 1777.37 404.86L1782.6 410.331L1764.81 428.938L1759.58 423.467C1757.28 421.059 1757.28 417.153 1759.58 414.753Z" stroke="#4D2C5E" stroke-opacity="0.1" stroke-width="3" stroke-miterlimit="10" stroke-linecap="round" stroke-linejoin="round"/>
<path d="M1787.41 415.351L1769.62 433.966" stroke="#4D2C5E" stroke-opacity="0.1" stroke-width="3" stroke-miterlimit="10" stroke-linecap="round" stroke-linejoin="round"/>
<path d="M1823 471.188L1778.51 424.663" stroke="#4D2C5E" stroke-opacity="0.1" stroke-width="3" stroke-miterlimit="10" stroke-linecap="round" stroke-linejoin="round"/>
<path d="M423.514 705.411L420.24 713.217" stroke="#4D2C5E" stroke-opacity="0.1" stroke-width="4" stroke-miterlimit="10" stroke-linecap="round" stroke-linejoin="round"/>
<path d="M447.28 716.315L444.005 724.121" stroke="#4D2C5E" stroke-opacity="0.1" stroke-width="4" stroke-miterlimit="10" stroke-linecap="round" stroke-linejoin="round"/>
<path d="M471.052 727.213L467.778 735.019" stroke="#4D2C5E" stroke-opacity="0.1" stroke-width="4" stroke-miterlimit="10" stroke-linecap="round" stroke-linejoin="round"/>
<path d="M407.608 698.115L405.971 702.024" stroke="#4D2C5E" stroke-opacity="0.1" stroke-width="4" stroke-miterlimit="10" stroke-linecap="round" stroke-linejoin="round"/>
<path d="M415.561 701.769L413.924 705.666" stroke="#4D2C5E" stroke-opacity="0.1" stroke-width="4" stroke-miterlimit="10" stroke-linecap="round" stroke-linejoin="round"/>
<path d="M431.421 709.036L429.783 712.945" stroke="#4D2C5E" stroke-opacity="0.1" stroke-width="4" stroke-miterlimit="10" stroke-linecap="round" stroke-linejoin="round"/>
<path d="M439.368 712.683L437.737 716.587" stroke="#4D2C5E" stroke-opacity="0.1" stroke-width="4" stroke-miterlimit="10" stroke-linecap="round" stroke-linejoin="round"/>
<path d="M455.233 719.957L453.596 723.866" stroke="#4D2C5E" stroke-opacity="0.1" stroke-width="4" stroke-miterlimit="10" stroke-linecap="round" stroke-linejoin="round"/>
<path d="M479.39 731.038L477.759 734.941" stroke="#4D2C5E" stroke-opacity="0.1" stroke-width="4" stroke-miterlimit="10" stroke-linecap="round" stroke-linejoin="round"/>
<path d="M463.18 723.604L461.549 727.507" stroke="#4D2C5E" stroke-opacity="0.1" stroke-width="4" stroke-miterlimit="10" stroke-linecap="round" stroke-linejoin="round"/>
<path d="M465.91 793.453L387.434 688.868L490.031 735.915L465.91 793.453Z" stroke="#4D2C5E" stroke-opacity="0.1" stroke-width="4" stroke-miterlimit="10" stroke-linecap="round" stroke-linejoin="round"/>
<path d="M461.911 760.445L440.443 731.833L468.506 744.698L461.911 760.445Z" stroke="#4D2C5E" stroke-opacity="0.1" stroke-width="4" stroke-miterlimit="10" stroke-linecap="round" stroke-linejoin="round"/>
<path d="M657.641 25.6545L628.062 40.613L687.019 168.149L716.599 153.19L657.641 25.6545Z" stroke="#4D2C5E" stroke-opacity="0.1" stroke-width="4" stroke-miterlimit="10" stroke-linecap="round" stroke-linejoin="round"/>
<path d="M664.7 40.959L649.917 48.4317" stroke="#4D2C5E" stroke-opacity="0.1" stroke-width="4" stroke-miterlimit="10" stroke-linecap="round" stroke-linejoin="round"/>
<path d="M678.362 70.5056L663.569 77.9891" stroke="#4D2C5E" stroke-opacity="0.1" stroke-width="4" stroke-miterlimit="10" stroke-linecap="round" stroke-linejoin="round"/>
<path d="M692.024 100.052L677.231 107.536" stroke="#4D2C5E" stroke-opacity="0.1" stroke-width="4" stroke-miterlimit="10" stroke-linecap="round" stroke-linejoin="round"/>
<path d="M705.676 129.61L690.894 137.083" stroke="#4D2C5E" stroke-opacity="0.1" stroke-width="4" stroke-miterlimit="10" stroke-linecap="round" stroke-linejoin="round"/>
<path d="M669.223 50.7432L661.832 54.4742" stroke="#4D2C5E" stroke-opacity="0.1" stroke-width="4" stroke-miterlimit="10" stroke-linecap="round" stroke-linejoin="round"/>
<path d="M673.787 60.6245L666.396 64.3662" stroke="#4D2C5E" stroke-opacity="0.1" stroke-width="4" stroke-miterlimit="10" stroke-linecap="round" stroke-linejoin="round"/>
<path d="M682.906 80.3438L675.515 84.0747" stroke="#4D2C5E" stroke-opacity="0.1" stroke-width="4" stroke-miterlimit="10" stroke-linecap="round" stroke-linejoin="round"/>
<path d="M687.47 90.2251L680.079 93.9668" stroke="#4D2C5E" stroke-opacity="0.1" stroke-width="4" stroke-miterlimit="10" stroke-linecap="round" stroke-linejoin="round"/>
<path d="M696.589 109.944L689.197 113.675" stroke="#4D2C5E" stroke-opacity="0.1" stroke-width="4" stroke-miterlimit="10" stroke-linecap="round" stroke-linejoin="round"/>
<path d="M701.163 119.825L693.762 123.567" stroke="#4D2C5E" stroke-opacity="0.1" stroke-width="4" stroke-miterlimit="10" stroke-linecap="round" stroke-linejoin="round"/>
<path d="M41.0654 671.46L8.96046 687.234C7.24367 688.083 5.19797 687.309 4.38584 685.513L2.32981 680.933C1.51768 679.137 2.25782 676.998 3.97461 676.148L36.0795 660.375C37.7963 659.526 39.8421 660.3 40.6543 662.095L42.7103 666.676C43.5224 668.482 42.7822 670.622 41.0654 671.46Z" stroke="#4D2C5E" stroke-opacity="0.1" stroke-width="4" stroke-miterlimit="10" stroke-linecap="round"/>
<path d="M53.5352 707.287L37.8272 673.073L12.4146 685.836L28.1227 720.049L38.0327 777.294C41.2916 784.401 49.4437 787.39 56.2286 783.981L83.6664 770.197C90.4616 766.789 93.3194 758.262 90.0606 751.166L53.5352 707.287Z" stroke="#4D2C5E" stroke-opacity="0.1" stroke-width="4" stroke-miterlimit="10" stroke-linecap="round"/>
<path d="M32.5845 745.865C32.5845 745.865 37.8274 736.984 51.7673 737.489C65.7072 737.995 68.051 724.716 68.051 724.716" stroke="#4D2C5E" stroke-opacity="0.1" stroke-width="4" stroke-miterlimit="10" stroke-linecap="round"/>
<path d="M85.763 118.08C97.9584 118.08 107.845 107.74 107.845 94.9845C107.845 82.2291 97.9584 71.8889 85.763 71.8889C73.5675 71.8889 63.6812 82.2291 63.6812 94.9845C63.6812 107.74 73.5675 118.08 85.763 118.08Z" stroke="#4D2C5E" stroke-opacity="0.1" stroke-width="4" stroke-miterlimit="10" stroke-linecap="round" stroke-linejoin="round"/>
<path d="M116.716 140.896C121.593 140.896 125.547 136.761 125.547 131.66C125.547 126.559 121.593 122.424 116.716 122.424C111.839 122.424 107.886 126.559 107.886 131.66C107.886 136.761 111.839 140.896 116.716 140.896Z" stroke="#4D2C5E" stroke-opacity="0.1" stroke-width="4" stroke-miterlimit="10" stroke-linecap="round" stroke-linejoin="round"/>
</svg>
